<svg xmlns="http://www.w3.org/2000/svg" viewBox="0 0 48.88 48.71"><defs><style>.a{fill:#2fa0da;}.a,.b,.c{fill-rule:evenodd;}.b{fill:#7fba42;}.c{fill:#969696;}</style></defs><title>Asset 1</title><path class="a" d="M18.15,2.13c6.5,0,10.93,3.63,10.93,10.2,0,7.2-5.2,10.2-8,10.2-2.31,0-2.89-.73-5.1-.73-2.85,0-8.6,1.09-15.3,11.66C-1.63,26.13,1.56,2.13,18.15,2.13Z"/><path class="b" d="M47.25,29.7c-2.91,5.83-8.15,8.19-14,5.25-6.44-3.22-6.8-9.23-5.53-11.75,1-2.07,1.95-2.27,2.94-4.25,1.28-2.55,2.88-8.2-3.57-18.94C34.65,1.23,54.69,14.82,47.25,29.7Z"/><path class="c" d="M8.41,41.81c-3.57-5.45-3-11.16,2.53-14.76,6-3.94,11.39-1.23,12.94,1.14,1.27,1.94,1,2.83,2.19,4.68,1.56,2.39,5.64,6.62,18.17,6.45C39.36,45.25,17.53,55.73,8.41,41.81Z"/></svg>