<?xml version="1.0" encoding="utf-8"?>
<!-- Generator: Adobe Illustrator 22.0.1, SVG Export Plug-In . SVG Version: 6.00 Build 0)  -->
<svg version="1.1" id="Layer_1" xmlns="http://www.w3.org/2000/svg" xmlns:xlink="http://www.w3.org/1999/xlink" x="0px" y="0px"
	 viewBox="0 0 249.8 48.7" style="enable-background:new 0 0 249.8 48.7;" xml:space="preserve">
<style type="text/css">
	.st0{fill:#2FA0DA;}
	.st1{fill:#7FBA42;}
	.st2{fill:#969696;}
	.st3{fill:#ffffff;}
</style>
<title>coursesuite</title>
<path class="st0" d="M9.5,13.7c3.3,0,5.6,1.9,5.6,5.2c0,3.7-2.7,5.2-4.1,5.2c-1.2,0-1.5-0.4-2.6-0.4c-1.5,0-4.4,0.6-7.8,5.9
	C-0.6,26,1,13.7,9.5,13.7z"/>
<path class="st1" d="M24.3,27.8c-1.5,3-4.2,4.2-7.1,2.7c-3.3-1.6-3.5-4.7-2.8-6c0.5-1.1,1-1.2,1.5-2.2c0.7-1.3,1.5-4.2-1.8-9.7
	C17.9,13.3,28.1,20.2,24.3,27.8z"/>
<path class="st2" d="M4.5,34c-1.8-2.8-1.5-5.7,1.3-7.5c3.1-2,5.8-0.6,6.6,0.6c0.6,1,0.5,1.4,1.1,2.4c0.8,1.2,2.9,3.4,9.3,3.3
	C20.3,35.7,9.2,41.1,4.5,34z"/>
<path class="st3" d="M43.5,31.4c-0.8,0.7-1.9,1.1-3,1.1c-1,0-1.9-0.4-2.6-1.1c-0.7-0.9-1.1-2.1-1-3.2c0-1.8,0.3-3.5,0.9-5.2
	c0.4-1.6,1.3-3,2.5-4.1c0.9-0.9,2.2-1.4,3.4-1.4c1,0,1.9,0.3,2.6,0.9c0.7,0.8,1.1,1.9,1.2,2.9l6.1-0.6c-0.1-2.2-1.1-4.3-2.8-5.7
	c-1.9-1.5-4.3-2.3-6.7-2.2c-2.5,0-5,0.7-7.1,2c-2.1,1.3-3.8,3.2-4.8,5.4c-1.1,2.3-1.6,4.8-1.6,7.3c-0.2,2.7,0.8,5.4,2.7,7.4
	c1.9,1.9,4.5,2.8,7.2,2.7c2.5,0.1,5-0.7,7-2.2c2.1-1.6,3.7-3.8,4.5-6.3l-6.2-1C45.3,29.4,44.5,30.5,43.5,31.4z"/>
<path class="st3" d="M55,32.4c0.8,1.6,2.2,3,3.8,3.8c1.8,0.9,3.9,1.4,5.9,1.3c3.7,0.2,7.4-1.4,9.8-4.2c2.4-2.7,3.7-6.3,3.7-9.9
	c0.1-2.9-0.9-5.7-2.9-7.8c-2-1.9-4.7-2.9-8.2-2.9c-3.7-0.1-7.2,1.3-9.7,3.9c-2.5,2.6-3.7,6.1-3.7,10.5C53.7,29,54.1,30.8,55,32.4z
	 M69.4,30.3c-1,1.4-2.7,2.3-4.4,2.3c-1.3,0-2.6-0.5-3.5-1.5c-1-1.1-1.5-2.5-1.4-4c0-1.5,0.3-3.1,0.9-4.5c0.5-1.5,1.3-2.8,2.5-3.8
	c1-0.8,2.4-1.3,3.7-1.3c1.3,0,2.5,0.5,3.4,1.4c0.9,1,1.4,2.3,1.3,3.6C72,25.4,71.1,28.2,69.4,30.3L69.4,30.3z"/>
<path class="st3" d="M80.5,26.5c-0.4,1.6-0.6,3.2-0.8,4.9c-0.1,1.7,0.5,3.3,1.7,4.5c1.2,1.2,2.9,1.8,4.6,1.7
	c3.2-0.1,6.3-1.4,8.5-3.8L93.8,37h6l4.9-23.7h-6.4L96,24.6c-0.2,1.1-0.5,2.3-0.9,3.3c-0.3,0.8-0.8,1.5-1.3,2.2
	c-0.5,0.6-1,1.1-1.6,1.5c-0.5,0.4-1.1,0.7-1.7,1C90,32.9,89.5,33,88.9,33c-0.7,0-1.4-0.2-1.9-0.7c-0.5-0.5-0.8-1.1-0.8-1.8
	c0.1-1.1,0.3-2.1,0.5-3.1l2.9-14h-6.4L80.5,26.5z"/>
<path class="st3" d="M103.5,37h6.4l1.5-7.4c0.4-2.3,1-4.5,1.9-6.6c0.6-1.3,1.5-2.5,2.7-3.3c1-0.8,2.1-1.2,3.4-1.2
	c0.6,0,1.3,0.1,1.9,0.3l2.4-5.2c-0.9-0.4-2-0.7-3-0.7c-2.6,0-5,1.7-7.2,5.1l1-4.6h-6L103.5,37z"/>
<path class="st3" d="M122.3,35.6c1.9,1.3,4.5,1.9,7.9,1.9c3.4,0,6.1-0.8,8-2.5c1.8-1.4,2.8-3.6,2.8-5.8c0-1.7-0.8-3.4-2.2-4.4
	c-1.1-0.9-3.1-1.8-6.3-2.7c-1.2-0.3-2.4-0.7-3.6-1.2c-0.5-0.3-0.9-0.9-0.9-1.5c0-0.6,0.4-1.2,0.9-1.5c0.9-0.5,1.9-0.8,2.9-0.7
	c1.2,0,2.4,0.3,3.4,0.9c0.7,0.5,1.2,1.1,1.5,1.9l5.9-1c-0.4-1.8-1.5-3.5-3-4.5c-1.6-1.1-3.9-1.7-6.9-1.7c-3.8,0-6.7,0.9-8.7,2.8
	c-1.3,1.2-2.1,3-2.1,4.8c0,1.8,0.8,3.5,2.2,4.5c0.9,0.7,3.3,1.7,7.2,3c0.9,0.2,1.8,0.6,2.6,1.2c0.3,0.3,0.5,0.7,0.5,1.2
	c0,0.7-0.4,1.3-0.9,1.6c-1,0.7-2.3,1.1-3.5,1c-1.2,0.1-2.3-0.2-3.3-0.8c-0.9-0.7-1.6-1.7-2-2.8l-6.2,1
	C119.2,32.5,120.5,34.4,122.3,35.6z"/>
<path class="st3" d="M165.9,23c0-3.2-0.9-5.7-2.6-7.5c-1.8-1.8-4.3-2.8-6.9-2.7c-4.1-0.2-8.1,1.7-10.5,5.1c-1.8,2.5-2.7,5.5-2.7,8.6
	c-0.1,3,0.9,5.9,3,8c2.1,2,4.9,3.1,7.8,3c2.2,0,4.4-0.6,6.3-1.7c2-1.3,3.5-3.1,4.5-5.2l-5.7-1c-1.2,2.2-2.9,3.3-5,3.3
	c-1.3,0-2.4-0.5-3.3-1.5c-0.9-1-1.4-2.4-1.3-3.8c0-0.1,0-0.3,0-0.6h16C165.8,25.8,165.9,24.4,165.9,23L165.9,23z M150.1,23.2
	c0.2-1.7,1-3.2,2.1-4.4c0.9-1,2.2-1.5,3.6-1.5c1.2-0.1,2.4,0.4,3.2,1.3c0.9,1.1,1.3,2.5,1.2,3.9c0,0.1,0,0.4,0,0.6H150.1z"/>
<path class="st3" d="M168.3,35.5c2.1,1.4,4.5,2.1,7,2c1.8,0,3.6-0.3,5.2-1c1.3-0.6,2.5-1.5,3.3-2.7c0.7-1,1.1-2.2,1.1-3.5c0-1.7-0.7-3.3-1.9-4.5
	c-0.8-0.8-2.7-1.8-5.8-3.2c-1.2-0.5-2.4-1.1-3.4-1.8c-0.6-0.5-1-1.2-1-2c0-0.8,0.5-1.6,1.2-2.1c0.9-0.7,2.1-1.1,3.2-1
	c1.4-0.1,2.9,0.4,4,1.2c1,0.9,1.5,2.1,1.5,3.4l3.9-0.3c0-2.1-0.9-4-2.4-5.4c-1.6-1.4-3.8-2.1-6.8-2.1c-2.3-0.1-4.5,0.6-6.2,2
	c-1.4,1.2-2.2,3-2.2,4.8c0,1,0.2,2,0.8,2.8c0.6,0.9,1.3,1.6,2.2,2.1c1.3,0.7,2.7,1.4,4.1,1.9c1.5,0.5,2.8,1.3,4,2.3
	c0.5,0.5,0.8,1.3,0.8,2c0,1-0.5,2-1.4,2.6c-1.2,0.8-2.6,1.2-4,1.1c-1.2,0-2.3-0.2-3.4-0.8c-0.9-0.4-1.6-1.1-2-2c-0.4-1-0.6-2-0.5-3
	l-4,0.2C165.5,31.9,166.4,34.1,168.3,35.5L168.3,35.5z"/>
<path class="st3" d="M201,37h3.7l4.9-23.7h-4l-2.2,10.2c-0.3,1.5-0.7,2.9-1.1,4.3c-0.4,1.2-1.1,2.3-1.9,3.3c-0.8,0.9-1.7,1.7-2.8,2.2
	c-1,0.5-2.2,0.8-3.3,0.8c-0.9,0.1-1.7-0.2-2.4-0.8c-0.6-0.5-0.9-1.3-0.8-2.1c0-1,0.2-2,0.4-2.9l3.2-15.1h-4L187.8,27
	c-0.4,1.7-0.7,3.4-0.8,5.1c0,1.5,0.6,2.9,1.7,3.9c1.2,1.1,2.8,1.6,4.4,1.6c3,0,5.9-1.6,8.7-4.8L201,37z"/>
<path class="st3" d="M218.5,8.9l1-4.6h-4l-1,4.6H218.5z M212.7,37l4.9-23.7h-4l-5,23.7H212.7z"/>
<path class="st3" d="M223.7,34c-0.5,0-1-0.1-1.4-0.4c-0.3-0.3-0.4-0.7-0.4-1.1c0.1-1,0.3-2,0.5-3l2.7-13.1h3.9l0.7-3.1h-4l1.8-8.6L223,7.5
	l-1.2,5.8h-3.2l-0.6,3.1h3.2l-2.9,13.7c-0.3,1.2-0.5,2.4-0.6,3.6c0,0.9,0.4,1.8,1.1,2.4c1.1,0.8,2.5,1.3,3.8,1.2
	c1,0,1.9-0.1,2.9-0.4l0.7-3.3C225.3,33.9,224.5,33.9,223.7,34L223.7,34z"/>
<path class="st3" d="M241.3,32.9c-1.2,0.9-2.6,1.3-4.1,1.4c-1.5,0-2.9-0.6-3.8-1.8c-1.1-1.4-1.7-3.2-1.5-5.1c0-0.4,0-0.8,0.1-1.2h17.4
	c0.2-1.2,0.3-2.4,0.3-3.6c0.1-2.6-0.8-5.2-2.5-7.2c-1.8-1.8-4.3-2.7-6.8-2.6c-2.2,0-4.3,0.6-6.2,1.8c-2,1.3-3.6,3.2-4.6,5.4
	c-1.2,2.3-1.8,4.9-1.8,7.5c0,1.8,0.4,3.6,1.1,5.3c0.7,1.5,1.9,2.7,3.3,3.5c1.5,0.8,3.1,1.2,4.8,1.2c2.7,0.1,5.2-0.9,7.2-2.6
	c1.8-1.4,3.2-3.4,3.9-5.5l-3.9-0.4C243.8,30.5,242.7,31.9,241.3,32.9z M235.9,17.7c1.3-1.1,3-1.7,4.7-1.7c1.5-0.1,2.9,0.5,3.9,1.6
	c1.1,1.3,1.6,3,1.5,4.6c0,0.2,0,0.5,0,0.9h-13.3C233.2,21,234.3,19.2,235.9,17.7z"/>
</svg>
