<svg xmlns="http://www.w3.org/2000/svg" viewBox="0 0 273.5 48.71" width="290" height="64"><defs><style>.a{fill:none;}.a,.b,.c,.d{fill-rule:evenodd;}.b{fill:#2fa0da;}.c{fill:#7fba42;}.d{fill:#969696;}.e{fill:#fff;}</style></defs><title>coursesuite</title><path class="a" d="M13,19.73c2.14,0,3.6,1.2,3.6,3.36a3.08,3.08,0,0,1-2.64,3.36c-.76,0-1-.24-1.68-.24-.94,0-2.83.36-5,3.84C6.44,27.63,7.49,19.73,13,19.73Z" transform="translate(-0.83 -1.03)"/><path class="b" d="M19,3.15c6.5,0,10.93,3.63,10.93,10.2,0,7.2-5.2,10.2-8,10.2-2.31,0-2.89-.73-5.1-.73-2.85,0-8.6,1.09-15.3,11.66C-.79,27.15,2.4,3.15,19,3.15Z" transform="translate(-0.83 -1.03)"/><path class="c" d="M48.09,30.73c-2.91,5.83-8.15,8.19-14,5.25-6.44-3.22-6.8-9.23-5.53-11.75,1-2.07,1.95-2.27,2.94-4.25,1.28-2.55,2.88-8.2-3.57-18.94C35.48,2.26,55.52,15.85,48.09,30.73Z" transform="translate(-0.83 -1.03)"/><path class="d" d="M9.25,42.84c-3.57-5.45-3-11.16,2.53-14.76,6-3.94,11.39-1.23,12.94,1.14,1.27,1.94,1,2.83,2.19,4.68,1.56,2.39,5.64,6.62,18.17,6.45C40.19,46.28,18.36,56.75,9.25,42.84Z" transform="translate(-0.83 -1.03)"/><path class="e" d="M68,32.43a4.75,4.75,0,0,1-3,1.11,3.3,3.3,0,0,1-2.56-1.14,4.66,4.66,0,0,1-1-3.23A17.36,17.36,0,0,1,62.33,24a8.73,8.73,0,0,1,2.46-4.13,5.2,5.2,0,0,1,3.45-1.38,3.63,3.63,0,0,1,2.59.94A4.58,4.58,0,0,1,72,22.37l6.08-.65A8.28,8.28,0,0,0,75.32,16a9.78,9.78,0,0,0-6.68-2.18,13.33,13.33,0,0,0-7.08,2,12.29,12.29,0,0,0-4.83,5.4,17,17,0,0,0-1.6,7.28,10.11,10.11,0,0,0,2.65,7.41,9.6,9.6,0,0,0,7.17,2.69,11.63,11.63,0,0,0,7-2.16,13.1,13.1,0,0,0,4.54-6.3l-6.21-1A7.2,7.2,0,0,1,68,32.43Z" transform="translate(-0.83 -1.03)"/><path class="e" d="M79.5,33.43a8.71,8.71,0,0,0,3.85,3.79,12.71,12.71,0,0,0,5.92,1.34,12.44,12.44,0,0,0,9.84-4.19,14.56,14.56,0,0,0,3.67-9.93,10.38,10.38,0,0,0-2.94-7.76q-2.94-2.88-8.17-2.88a12.81,12.81,0,0,0-9.74,3.91q-3.71,3.91-3.71,10.48A11.26,11.26,0,0,0,79.5,33.43ZM93.9,31.36a5.42,5.42,0,0,1-4.41,2.25A4.53,4.53,0,0,1,86,32.12a5.7,5.7,0,0,1-1.38-4,13.16,13.16,0,0,1,.89-4.49A8.23,8.23,0,0,1,88,19.88,5.72,5.72,0,0,1,91.7,18.6,4.55,4.55,0,0,1,95.12,20a5,5,0,0,1,1.32,3.64,12,12,0,0,1-2.54,7.75Z" transform="translate(-0.83 -1.03)"/><path class="e" d="M105,27.53a30.35,30.35,0,0,0-.76,4.88,6,6,0,0,0,1.67,4.48,6.2,6.2,0,0,0,4.59,1.67A12.11,12.11,0,0,0,119,34.79L118.37,38h6l4.94-23.65h-6.39l-2.36,11.27a21.05,21.05,0,0,1-.91,3.34,9.58,9.58,0,0,1-1.29,2.23,9,9,0,0,1-1.56,1.5,7.17,7.17,0,0,1-1.69,1,4.54,4.54,0,0,1-1.67.32,2.66,2.66,0,0,1-1.94-.73,2.36,2.36,0,0,1-.76-1.76,22,22,0,0,1,.53-3.14l2.92-14h-6.39Z" transform="translate(-0.83 -1.03)"/><path class="e" d="M128.09,38h6.39L136,30.58a33.12,33.12,0,0,1,1.89-6.6,8.36,8.36,0,0,1,2.66-3.33,5.68,5.68,0,0,1,3.35-1.25,5.43,5.43,0,0,1,1.85.31l2.45-5.23a7.44,7.44,0,0,0-3-.69q-3.9,0-7.24,5.14l1-4.59h-6Z" transform="translate(-0.83 -1.03)"/><path class="e" d="M146.88,36.67q2.79,1.88,7.92,1.88t8-2.47a7.52,7.52,0,0,0,2.83-5.83,5.61,5.61,0,0,0-2.23-4.45q-1.58-1.31-6.26-2.67a20.89,20.89,0,0,1-3.58-1.25,1.71,1.71,0,0,1-.89-1.47,1.91,1.91,0,0,1,.88-1.54,4.84,4.84,0,0,1,2.88-.67,6.47,6.47,0,0,1,3.43.87A3.65,3.65,0,0,1,161.34,21l5.9-1a7.28,7.28,0,0,0-3-4.52q-2.34-1.67-6.9-1.67-5.74,0-8.66,2.83a6.49,6.49,0,0,0-2.09,4.83A5.55,5.55,0,0,0,148.79,26q1.38,1.11,7.17,3a8.1,8.1,0,0,1,2.65,1.2,1.67,1.67,0,0,1,.47,1.16,2,2,0,0,1-.91,1.63,5.71,5.71,0,0,1-3.5,1,6,6,0,0,1-3.34-.81,6,6,0,0,1-2-2.77l-6.19,1A9.32,9.32,0,0,0,146.88,36.67Z" transform="translate(-0.83 -1.03)"/><path class="e" d="M190.46,24q0-4.83-2.56-7.51a9.09,9.09,0,0,0-6.9-2.68,12.13,12.13,0,0,0-10.49,5.12,14.53,14.53,0,0,0-2.69,8.64,10.86,10.86,0,0,0,3,8,10.42,10.42,0,0,0,7.75,3,11.69,11.69,0,0,0,6.27-1.73,12,12,0,0,0,4.46-5.18l-5.72-1q-1.78,3.3-5,3.3a4.32,4.32,0,0,1-3.28-1.45A5.36,5.36,0,0,1,174,28.73q0-.2,0-.58h16a17.82,17.82,0,0,0,.45-4.16Zm-15.83.27a8,8,0,0,1,2.13-4.41,5,5,0,0,1,3.55-1.49,4,4,0,0,1,3.16,1.31,5.74,5.74,0,0,1,1.18,3.94q0,.22,0,.65Z" transform="translate(-0.83 -1.03)"/><path class="e" d="M192.85,36.5a11.78,11.78,0,0,0,7,2,12.46,12.46,0,0,0,5.22-1,7.43,7.43,0,0,0,3.3-2.71,6.35,6.35,0,0,0,1.08-3.45,6,6,0,0,0-1.91-4.5q-1.2-1.16-5.83-3.16a16.76,16.76,0,0,1-3.45-1.78,2.51,2.51,0,0,1-1-2,2.71,2.71,0,0,1,1.16-2.07,5,5,0,0,1,3.25-1,5.93,5.93,0,0,1,4,1.25,4.54,4.54,0,0,1,1.51,3.38l3.94-.27a7.16,7.16,0,0,0-2.42-5.42q-2.33-2.06-6.78-2.06a9,9,0,0,0-6.23,2,6.25,6.25,0,0,0-2.23,4.81,5.32,5.32,0,0,0,.76,2.84,6.6,6.6,0,0,0,2.25,2.15,38.21,38.21,0,0,0,4.09,1.93,12.68,12.68,0,0,1,4,2.3,3,3,0,0,1,.8,2A3.15,3.15,0,0,1,204,34.35a6.33,6.33,0,0,1-4,1.07,6.92,6.92,0,0,1-3.35-.78,4.24,4.24,0,0,1-2-2,7.38,7.38,0,0,1-.53-3l-4,.24q-.16,4.56,2.72,6.59Z" transform="translate(-0.83 -1.03)"/><path class="e" d="M225.53,38h3.72l4.94-23.65h-4L228,24.57a29.53,29.53,0,0,1-1.14,4.3,11.65,11.65,0,0,1-1.9,3.32,8.79,8.79,0,0,1-2.78,2.23,7.19,7.19,0,0,1-3.31.82,3.42,3.42,0,0,1-2.39-.75,2.68,2.68,0,0,1-.81-2.08,15.24,15.24,0,0,1,.4-2.94l3.16-15.12h-4L212.37,28a29.35,29.35,0,0,0-.76,5.12A5.05,5.05,0,0,0,213.3,37a6.21,6.21,0,0,0,4.42,1.57q4.45,0,8.71-4.81Z" transform="translate(-0.83 -1.03)"/><path class="e" d="M243.09,9.92l1-4.56h-4l-1,4.56ZM237.23,38l4.94-23.65h-4L233.2,38Z" transform="translate(-0.83 -1.03)"/><path class="e" d="M248.25,35a2,2,0,0,1-1.35-.38,1.41,1.41,0,0,1-.41-1.09,24.41,24.41,0,0,1,.51-3l2.74-13.07h3.94l.67-3.12h-4l1.8-8.59-4.61,2.78-1.22,5.81h-3.18l-.65,3.12h3.18l-2.87,13.74a24.33,24.33,0,0,0-.58,3.58,3,3,0,0,0,1.07,2.43,5.82,5.82,0,0,0,3.83,1.18A11.08,11.08,0,0,0,250,38l.67-3.3a9.66,9.66,0,0,1-2.38.27Z" transform="translate(-0.83 -1.03)"/><path class="e" d="M265.85,33.88a7.19,7.19,0,0,1-4.07,1.36A4.77,4.77,0,0,1,258,33.49a7.48,7.48,0,0,1-1.53-5.07,9.81,9.81,0,0,1,.09-1.25H274a21.16,21.16,0,0,0,.31-3.56,9.91,9.91,0,0,0-2.53-7.17A8.94,8.94,0,0,0,265,13.82a11.48,11.48,0,0,0-6.17,1.77A12.8,12.8,0,0,0,254.24,21a16.82,16.82,0,0,0-1.79,7.51,11.73,11.73,0,0,0,1.15,5.28,8,8,0,0,0,3.34,3.53,9.79,9.79,0,0,0,4.82,1.21A10.72,10.72,0,0,0,269,35.9a11.86,11.86,0,0,0,3.89-5.54L269,30A8.84,8.84,0,0,1,265.85,33.88Zm-5.42-15.14A7.16,7.16,0,0,1,265.14,17a5.1,5.1,0,0,1,3.9,1.61,6.54,6.54,0,0,1,1.51,4.64q0,.27,0,.89H257.25A10.68,10.68,0,0,1,260.43,18.74Z" transform="translate(-0.83 -1.03)"/></svg>