<svg xmlns="http://www.w3.org/2000/svg" viewBox="0 0 249.46 33.31" width="145" height="32">
  <title>coursesuite-black</title>
  <path d="M9.5,13.7c3.3,0,5.6,1.9,5.6,5.2,0,3.7-2.7,5.2-4.1,5.2-1.2,0-1.5-.4-2.6-.4-1.5,0-4.4.6-7.8,5.9C-.6,26,1,13.7,9.5,13.7Z" transform="translate(-0.25 -4.3)" fill="#2fa0da"/>
  <path d="M24.3,27.8c-1.5,3-4.2,4.2-7.1,2.7-3.3-1.6-3.5-4.7-2.8-6,.5-1.1,1-1.2,1.5-2.2.7-1.3,1.5-4.2-1.8-9.7C17.9,13.3,28.1,20.2,24.3,27.8Z" transform="translate(-0.25 -4.3)" fill="#7fba42"/>
  <path d="M4.5,34C2.7,31.2,3,28.3,5.8,26.5c3.1-2,5.8-.6,6.6.6.6,1,.5,1.4,1.1,2.4.8,1.2,2.9,3.4,9.3,3.3C20.3,35.7,9.2,41.1,4.5,34Z" transform="translate(-0.25 -4.3)" fill="#969696"/>
  <path d="M43.5,31.4a4.62,4.62,0,0,1-3,1.1,3.63,3.63,0,0,1-2.6-1.1,4.71,4.71,0,0,1-1-3.2,15.38,15.38,0,0,1,.9-5.2,8.33,8.33,0,0,1,2.5-4.1,4.94,4.94,0,0,1,3.4-1.4,3.92,3.92,0,0,1,2.6.9,5.32,5.32,0,0,1,1.2,2.9l6.1-.6A7.85,7.85,0,0,0,50.8,15a10.2,10.2,0,0,0-6.7-2.2,13.59,13.59,0,0,0-7.1,2,12.52,12.52,0,0,0-4.8,5.4,16.87,16.87,0,0,0-1.6,7.3,9.76,9.76,0,0,0,2.7,7.4,9.56,9.56,0,0,0,7.2,2.7,11,11,0,0,0,7-2.2A12.93,12.93,0,0,0,52,29.1l-6.2-1A8.56,8.56,0,0,1,43.5,31.4Z" transform="translate(-0.25 -4.3)"/>
  <path d="M55,32.4a8.72,8.72,0,0,0,3.8,3.8,12.12,12.12,0,0,0,5.9,1.3,12.2,12.2,0,0,0,9.8-4.2,15,15,0,0,0,3.7-9.9,10.69,10.69,0,0,0-2.9-7.8,11.39,11.39,0,0,0-8.2-2.9,12.89,12.89,0,0,0-9.7,3.9c-2.5,2.6-3.7,6.1-3.7,10.5A10.67,10.67,0,0,0,55,32.4Zm14.4-2.1A5.54,5.54,0,0,1,65,32.6a4.69,4.69,0,0,1-3.5-1.5,5.33,5.33,0,0,1-1.4-4,11.66,11.66,0,0,1,.9-4.5,8.18,8.18,0,0,1,2.5-3.8,6.16,6.16,0,0,1,3.7-1.3,4.76,4.76,0,0,1,3.4,1.4,4.88,4.88,0,0,1,1.3,3.6,11.78,11.78,0,0,1-2.5,7.8Z" transform="translate(-0.25 -4.3)"/>
  <path d="M80.5,26.5a38.52,38.52,0,0,0-.8,4.9,5.8,5.8,0,0,0,1.7,4.5A6,6,0,0,0,86,37.6a12,12,0,0,0,8.5-3.8L93.8,37h6l4.9-23.7H98.3L96,24.6a17.83,17.83,0,0,1-.9,3.3,9.8,9.8,0,0,1-1.3,2.2,7.52,7.52,0,0,1-1.6,1.5,9.5,9.5,0,0,1-1.7,1,2.93,2.93,0,0,1-1.6.4,2.64,2.64,0,0,1-1.9-.7,2.5,2.5,0,0,1-.8-1.8,28.68,28.68,0,0,1,.5-3.1l2.9-14H83.2Z" transform="translate(-0.25 -4.3)"/>
  <path d="M103.5,37h6.4l1.5-7.4a29.44,29.44,0,0,1,1.9-6.6,7.91,7.91,0,0,1,2.7-3.3,5.23,5.23,0,0,1,3.4-1.2,6.28,6.28,0,0,1,1.9.3l2.4-5.2a7.75,7.75,0,0,0-3-.7q-3.9,0-7.2,5.1l1-4.6h-6Z" transform="translate(-0.25 -4.3)"/>
  <path d="M122.3,35.6c1.9,1.3,4.5,1.9,7.9,1.9s6.1-.8,8-2.5a7.39,7.39,0,0,0,2.8-5.8,5.45,5.45,0,0,0-2.2-4.4c-1.1-.9-3.1-1.8-6.3-2.7a25.33,25.33,0,0,1-3.6-1.2,1.7,1.7,0,0,1,0-3,5,5,0,0,1,2.9-.7,6.65,6.65,0,0,1,3.4.9,4,4,0,0,1,1.5,1.9l5.9-1a7.43,7.43,0,0,0-3-4.5,12.11,12.11,0,0,0-6.9-1.7c-3.8,0-6.7.9-8.7,2.8a6.66,6.66,0,0,0-2.1,4.8,5.5,5.5,0,0,0,2.2,4.5q1.35,1.05,7.2,3a6.82,6.82,0,0,1,2.6,1.2,1.66,1.66,0,0,1,.5,1.2,1.89,1.89,0,0,1-.9,1.6,5.51,5.51,0,0,1-3.5,1,5.42,5.42,0,0,1-3.3-.8,6.29,6.29,0,0,1-2-2.8l-6.2,1A9.87,9.87,0,0,0,122.3,35.6Z" transform="translate(-0.25 -4.3)"/>
  <path d="M165.9,23a10.51,10.51,0,0,0-2.6-7.5,9.27,9.27,0,0,0-6.9-2.7,12.16,12.16,0,0,0-10.5,5.1,14.63,14.63,0,0,0-2.7,8.6,10.69,10.69,0,0,0,3,8,10.78,10.78,0,0,0,7.8,3,12.66,12.66,0,0,0,6.3-1.7,12.56,12.56,0,0,0,4.5-5.2l-5.7-1a5.55,5.55,0,0,1-5,3.3,4.27,4.27,0,0,1-3.3-1.5,5.2,5.2,0,0,1-1.3-3.8V27h16a17,17,0,0,0,.4-4Zm-15.8.2a7.9,7.9,0,0,1,2.1-4.4,4.75,4.75,0,0,1,3.6-1.5,3.89,3.89,0,0,1,3.2,1.3,5.51,5.51,0,0,1,1.2,3.9v.6H150.1Z" transform="translate(-0.25 -4.3)"/>
  <path d="M168.3,35.5a11.67,11.67,0,0,0,7,2,13,13,0,0,0,5.2-1,7.91,7.91,0,0,0,3.3-2.7,6.06,6.06,0,0,0,1.1-3.5,6.36,6.36,0,0,0-1.9-4.5c-.8-.8-2.7-1.8-5.8-3.2a18.29,18.29,0,0,1-3.4-1.8,2.61,2.61,0,0,1-1-2,2.72,2.72,0,0,1,1.2-2.1,4.71,4.71,0,0,1,3.2-1,6.31,6.31,0,0,1,4,1.2,4.48,4.48,0,0,1,1.5,3.4l3.9-.3a7.34,7.34,0,0,0-2.4-5.4c-1.6-1.4-3.8-2.1-6.8-2.1a9.08,9.08,0,0,0-6.2,2,6.39,6.39,0,0,0-2.2,4.8,4.59,4.59,0,0,0,.8,2.8,6.3,6.3,0,0,0,2.2,2.1,30.5,30.5,0,0,0,4.1,1.9,12.28,12.28,0,0,1,4,2.3,3,3,0,0,1,.8,2,3.14,3.14,0,0,1-1.4,2.6,6.4,6.4,0,0,1-4,1.1,6.81,6.81,0,0,1-3.4-.8,3.9,3.9,0,0,1-2-2,6.34,6.34,0,0,1-.5-3l-4,.2c-.1,3.4.8,5.6,2.7,7Z" transform="translate(-0.25 -4.3)"/>
  <path d="M201,37h3.7l4.9-23.7h-4l-2.2,10.2c-.3,1.5-.7,2.9-1.1,4.3a10.91,10.91,0,0,1-1.9,3.3,8.55,8.55,0,0,1-2.8,2.2,7.64,7.64,0,0,1-3.3.8,3.07,3.07,0,0,1-2.4-.8,2.35,2.35,0,0,1-.8-2.1,13.52,13.52,0,0,1,.4-2.9l3.2-15.1h-4L187.8,27a30,30,0,0,0-.8,5.1,5.22,5.22,0,0,0,1.7,3.9,6.46,6.46,0,0,0,4.4,1.6q4.5,0,8.7-4.8Z" transform="translate(-0.25 -4.3)"/>
  <path d="M218.5,8.9l1-4.6h-4l-1,4.6ZM212.7,37l4.9-23.7h-4l-5,23.7Z" transform="translate(-0.25 -4.3)"/>
  <path d="M223.7,34a2.3,2.3,0,0,1-1.4-.4,1.5,1.5,0,0,1-.4-1.1c.1-1,.3-2,.5-3l2.7-13.1H229l.7-3.1h-4l1.8-8.6L223,7.5l-1.2,5.8h-3.2l-.6,3.1h3.2l-2.9,13.7a22.54,22.54,0,0,0-.6,3.6,3.19,3.19,0,0,0,1.1,2.4,5.93,5.93,0,0,0,3.8,1.2,9.67,9.67,0,0,0,2.9-.4l.7-3.3a11.78,11.78,0,0,1-2.5.4Z" transform="translate(-0.25 -4.3)"/>
  <path d="M241.3,32.9a7.49,7.49,0,0,1-4.1,1.4,4.65,4.65,0,0,1-3.8-1.8,7,7,0,0,1-1.5-5.1,4.87,4.87,0,0,1,.1-1.2h17.4a21.86,21.86,0,0,0,.3-3.6,10.56,10.56,0,0,0-2.5-7.2,9.11,9.11,0,0,0-6.8-2.6,11.47,11.47,0,0,0-6.2,1.8,12.72,12.72,0,0,0-4.6,5.4,16.26,16.26,0,0,0-1.8,7.5,14,14,0,0,0,1.1,5.3,8,8,0,0,0,3.3,3.5,10.05,10.05,0,0,0,4.8,1.2,10.48,10.48,0,0,0,7.2-2.6,11.88,11.88,0,0,0,3.9-5.5l-3.9-.4A7.35,7.35,0,0,1,241.3,32.9Zm-5.4-15.2a7.33,7.33,0,0,1,4.7-1.7,4.8,4.8,0,0,1,3.9,1.6,6.55,6.55,0,0,1,1.5,4.6v.9H232.7A10.72,10.72,0,0,1,235.9,17.7Z" transform="translate(-0.25 -4.3)"/>
</svg>
