<?xml version="1.0" encoding="utf-8"?>
<svg version="1.1" xmlns="http://www.w3.org/2000/svg" xmlns:xlink="http://www.w3.org/1999/xlink" x="0px"
	 y="0px" width="50.9px" height="51.4px" viewBox="0 0 50.9 51.4" xml:space="preserve">
<path id="green" fill="#7FBA42" d="M49,31.9c-3.2,6.2-8.8,8.6-14.9,5.3c-6.7-3.5-7-10-5.6-12.6
	c1.1-2.2,2.1-2.4,3.2-4.5c1.4-2.7,3.2-8.7-3.4-20.2C36.3,1.3,57.2,16.2,49,31.9z"/>
<path id="blue" fill="#2FA0DA" d="M19.3,3c6.9,0,11.6,3.9,11.6,10.8c0,7.7-5.5,10.8-8.5,10.8
	c-2.5,0-3.1-0.8-5.4-0.8c-3,0-9.1,1.2-16.2,12.4C-1.7,28.5,1.7,3,19.3,3z"/>
<path id="grey" fill="#969696" d="M8.4,43.9c-3.8-5.8-3.2-11.9,2.5-15.7c6.3-4.2,12-1.4,13.7,1.1
	c1.4,2.1,1.1,3,2.4,5c1.7,2.5,6,7,19.3,6.7C41.1,47.4,18.1,58.7,8.4,43.9z"/>
</svg>